<?xml version="1.0" encoding="UTF-8"?>
<svg width="26" height="20" viewBox="0 0 26 20" fill="none" xmlns="http://www.w3.org/2000/svg">
<mask id="mask0" mask-type="alpha" maskUnits="userSpaceOnUse" x="0" y="0" width="26" height="20">
<path fill-rule="evenodd" clip-rule="evenodd" d="M12.9168 19.9989H25.8332V0.000117302H12.9168H0.000366211V19.9989H12.9168Z" fill="white"/>
</mask>
<g mask="url(#mask0)">
<path fill-rule="evenodd" clip-rule="evenodd" d="M10.1815 12.9201C9.65206 12.4472 9.47597 11.6213 9.41728 10.6189C9.94671 10.7366 11.0032 10.9731 11.0032 10.9731C10.8858 10.8554 10.4163 10.5013 10.3576 10.3236C11.1206 10.2648 12.237 10.0884 12.237 10.0884C12.237 10.0884 11.3566 9.38012 11.3566 8.90835C11.4153 8.43659 11.474 8.08247 11.6501 7.19776C11.8261 6.31188 11.8848 4.83776 10.7684 2.94953C9.41728 0.767176 6.89219 1.06129 6.83232 1.76953C6.48015 1.47541 5.18767 1.59306 4.48332 2.94953C3.48432 4.89659 3.42562 5.95776 3.54302 7.25659C3.60171 8.14129 3.89519 8.43659 3.89519 8.96718C3.89519 9.49776 2.54401 9.97071 2.54401 9.97071C2.54401 9.97071 4.13115 10.206 4.89419 10.3236C4.83549 10.4425 4.48332 10.6778 4.36593 10.7954C4.36593 10.7954 5.30506 10.7366 5.83449 10.6189C5.7171 11.6213 5.59971 12.4472 5.07028 12.9201C4.48332 13.4507 2.66258 13.8636 1.83967 14.3354C0.781971 14.866 0.136319 16.4001 0.018928 18.1119C-0.0984633 19.8225 0.312406 19.9989 2.07445 19.9989H13.3534C15.1154 19.9989 15.5275 19.8225 15.4688 18.1119C15.3502 16.2825 14.5285 14.8072 13.3534 14.2766C12.4718 13.8636 10.7684 13.4507 10.1815 12.9201ZM25.8074 16.9319C25.514 13.8048 24.3976 13.9225 20.1093 11.6813C19.4624 11.3272 19.4624 10.7954 19.345 10.4425C19.2863 10.206 19.2277 9.55659 19.169 9.026C19.2277 8.90835 19.345 8.79071 19.4037 8.67188C19.5798 8.31776 19.6385 7.846 19.7559 7.25659C19.8745 7.25659 19.9919 7.19776 20.0506 7.07894C20.0506 7.02012 20.2853 6.60718 20.344 6.25306C20.4027 6.01776 20.4027 5.84012 20.4027 5.66365C20.4027 5.42718 20.2853 5.19188 20.168 5.13188H19.9919C19.9919 4.48365 20.0506 3.95188 20.0506 3.48012C20.2853 3.36247 20.5201 3.30365 20.5201 3.24482C20.5201 3.12718 20.5201 0.000117302 16.8775 0.000117302C16.0557 0.000117302 15.4688 0.294235 14.998 0.708353C13.8817 0.826 13.5882 1.47541 13.6469 3.71659C13.6469 4.12953 13.7056 4.60129 13.7643 5.13188H13.5295C13.4121 5.19188 13.2947 5.42718 13.2947 5.66365C13.2947 5.84012 13.3534 5.95776 13.4121 6.25306C13.4708 6.54835 13.6469 7.02012 13.7056 7.07894C13.7643 7.19776 13.8817 7.25659 13.999 7.25659C14.1176 7.90482 14.235 8.43659 14.5285 8.84835C14.5872 8.90835 14.6459 8.96718 14.7046 9.026C14.6459 9.55659 14.5872 10.206 14.5285 10.4425C14.4698 10.7954 14.4698 11.3272 13.7643 11.6813C13.2947 11.9166 12.8251 12.1531 12.4131 12.3895C13.5882 12.8613 15.0931 13.7672 15.8573 14.7107C16.7965 15.8907 16.8188 17.2848 16.8188 19.1142C16.8188 19.4095 16.6427 19.7036 16.5253 19.9989H23.3986C25.1606 19.9989 25.7487 19.8225 25.8074 17.8754C25.8661 17.5213 25.8074 17.1672 25.8074 16.9319Z" fill="#18223E"/>
</g>
</svg>
