<?xml version="1.0" encoding="UTF-8"?>
<svg width="14" height="14" viewBox="0 0 14 14" fill="none" xmlns="http://www.w3.org/2000/svg">
<path fill-rule="evenodd" clip-rule="evenodd" d="M14 6.48968C14 5.84451 13.496 5.33001 12.8625 5.28451C12.8648 5.27284 12.8683 5.24834 12.8683 5.24834C12.8683 5.24834 10.983 5.25184 8.76632 5.24834C8.75932 4.50401 10.3507 3.18218 9.27032 0.755512C9.26915 0.753178 9.26682 0.753178 9.26682 0.750845C9.09649 0.312178 8.67999 -0.000488281 8.18532 -0.000488281C7.55415 -0.000488281 7.04665 0.507012 7.02565 1.13818C7.02332 1.14051 7.00815 1.14985 7.00815 1.14985V2.33401L3.49182 6.41385V13.9902H11.0542C11.0717 13.9913 11.0845 13.9995 11.102 13.9995C11.1183 13.9995 11.1323 13.9913 11.1487 13.9902H11.1627L11.165 13.9878C11.788 13.9528 12.2862 13.4512 12.2862 12.8247C12.2862 12.5797 12.1928 12.365 12.0645 12.176C12.5288 12.022 12.8695 11.595 12.8695 11.0747C12.8695 10.6068 12.5942 10.2102 12.2022 10.0212C12.8742 10.0072 13.4167 9.47051 13.4167 8.80435C13.4167 8.30618 13.111 7.88034 12.6758 7.69018C12.712 7.69368 12.7423 7.71118 12.7785 7.71118C13.4528 7.71118 14 7.16401 14 6.48968ZM0 13.9994H2.33333V5.83276H0V13.9994Z" fill="#BEC2C9"/>
</svg>
