<?xml version="1.0" encoding="UTF-8"?>
<svg width="20" height="20" viewBox="0 0 20 20" fill="none" xmlns="http://www.w3.org/2000/svg">
<mask id="mask0" mask-type="alpha" maskUnits="userSpaceOnUse" x="0" y="0" width="20" height="20">
<path fill-rule="evenodd" clip-rule="evenodd" d="M19.7429 0.000104904H0V19.7789H19.7429V0.000104904Z" fill="white"/>
</mask>
<g mask="url(#mask0)">
<path fill-rule="evenodd" clip-rule="evenodd" d="M9.87026 0C8.72605 0 7.62605 0.193684 6.60394 0.553684C6.54289 0.574737 6.50815 0.576842 6.42078 0.666316C6.02815 1.06105 7.07341 0.965263 7.1492 1.00947C7.26394 1.07368 7.32394 1.21474 7.45447 1.26C7.59657 1.31158 7.74499 1.23579 7.88815 1.22316C8.07763 1.20737 8.26499 1.26 8.45026 1.19474C8.55026 1.16 8.62289 1.07789 8.73552 1.07684C8.82815 1.07684 8.90605 1.14105 8.99657 1.14105C9.09868 1.14105 9.18605 1.05684 9.29236 1.08316C9.55762 1.14316 9.20394 1.43263 9.0871 1.46947C8.96815 1.50842 8.86499 1.45263 8.75026 1.52211C8.6471 1.58421 8.61657 1.71789 8.50078 1.76947C8.27657 1.87158 7.99762 1.82842 7.91341 2.11789C7.83762 2.37895 8.09447 2.57895 8.31552 2.65789C8.43973 2.70105 8.64499 2.73789 8.75236 2.81579C8.91552 2.93789 8.9092 3.56421 9.25341 3.44316C9.35341 3.40632 9.37341 3.30421 9.37552 3.20947C9.37552 3.04526 9.29236 2.94105 9.4492 2.84632C9.87868 2.58632 9.14078 1.91474 9.69341 1.82842C10.0755 1.76842 10.2966 2.26526 10.6566 2.19368C10.8608 2.15053 10.8608 2.04 11.0439 2.18526C11.2145 2.32316 11.2755 2.6 11.4597 2.71895C11.6808 2.85579 12.3366 3.09474 12.1829 3.24842C12.0303 3.40211 11.9787 3.39579 11.8808 3.44947C11.7576 3.51895 11.6113 3.49895 11.4755 3.51053C11.225 3.52947 11.2987 3.52737 11.246 3.69158C11.1987 3.84526 11.1029 4.01789 11.2818 4.11474C11.3334 4.14526 11.3366 4.15895 11.3366 4.23158C11.3366 4.39579 11.0324 4.42842 10.8418 4.56526C10.6703 4.68632 10.585 4.74 10.4745 4.90842C10.3829 5.04526 10.2955 5.13789 10.1639 5.23684C10.005 5.35789 9.7892 5.45789 9.6871 5.63684C9.55868 5.86421 9.78394 6.10421 9.64184 6.30316C9.36289 6.69368 8.69868 6.55789 8.67236 7.20632C8.6692 7.32526 8.71973 7.46632 8.75657 7.57684C8.82394 7.76421 8.99026 8.10737 8.81657 8.28737C8.64499 8.46 8.55868 8.10316 8.53026 7.99789C8.47973 7.79895 8.45657 7.57789 8.31236 7.42211C8.16815 7.26316 7.70815 7.19158 7.49657 7.18947C7.16184 7.18947 6.87762 7.36421 6.53341 7.30211C5.9692 7.20211 5.79026 7.42737 5.68499 7.95789C5.63447 8.20947 5.48184 8.42737 5.44078 8.68526C5.35131 9.24 6.13236 10.2747 6.59973 9.5C6.71341 9.31158 6.69447 9.07579 6.96815 9.04526C7.09868 9.03263 7.3671 8.98105 7.48394 9.02421C7.69341 9.10421 7.51657 9.55158 7.43657 9.71158C7.35868 9.86526 7.09868 10.0232 7.0692 10.1842C7.03131 10.4326 7.34815 10.32 7.51657 10.2947C7.69236 10.2653 7.93657 10.2432 8.05762 10.4042C8.17236 10.5579 8.09447 10.7263 8.0871 10.8958C8.05762 11.4137 8.25657 11.5695 8.72394 11.52C8.97973 11.4916 9.2271 11.4916 9.43341 11.6653L9.46499 11.6874C9.51236 11.7189 9.56184 11.7358 9.61973 11.7232C9.8092 11.68 9.74078 11.6989 9.8292 11.5642C9.93447 11.4032 10.1618 11.2389 10.3639 11.26C10.4892 11.2726 10.5608 11.3905 10.6755 11.4158C10.8071 11.4442 10.8903 11.3589 11.0155 11.3621C11.1282 11.3621 11.1892 11.4116 11.2829 11.4589C11.6903 11.6684 12.1145 11.5284 12.5324 11.6558C12.9134 11.7747 13.2313 12.0379 13.6134 12.1474C13.9303 12.2337 14.3345 12.1884 14.5839 12.4411C14.7471 12.6042 14.6671 12.7842 14.7334 12.9737C14.8282 13.2421 15.0839 13.18 15.3124 13.2621C15.6176 13.3726 15.7882 13.34 16.105 13.3211C16.4903 13.2926 17.1239 13.3726 17.1597 13.8621C17.2029 14.4674 16.4966 15.0211 16.2976 15.5537C16.205 15.7989 16.0924 16.0937 15.9439 16.3074C15.6534 16.7221 15.1513 16.8958 14.7471 17.1663C14.2692 17.4821 13.9713 17.9937 13.5008 18.3158C13.3797 18.4011 13.245 18.4863 13.1018 18.5232C12.9755 18.5558 12.7955 18.5105 12.6829 18.5947C12.4997 18.7305 12.465 18.8947 12.2355 18.9747C11.9892 19.0589 11.7282 19.1768 11.4776 19.2379C11.3945 19.26 11.3134 19.2989 11.2408 19.3358C11.145 19.3821 11.0355 19.4347 10.9639 19.5158C10.946 19.5347 10.9334 19.56 10.9271 19.5821C10.9145 19.6263 10.9324 19.6411 10.8871 19.6632C10.8555 19.6779 10.8166 19.6663 10.8008 19.7053C10.7871 19.7526 10.9903 19.7168 11.0903 19.7042C15.9692 19.1011 19.7429 14.9358 19.7429 9.88842C19.7429 4.42632 15.3218 0 9.87026 0ZM10.5671 16.8263C10.3124 16.6579 9.96291 16.6842 9.72923 16.4789C9.52712 16.2989 9.48712 16.0074 9.38818 15.7695C9.17134 15.2526 8.47344 15.1326 8.62712 14.5221C8.68081 14.3063 8.53976 14.1611 8.56291 13.9537C8.6166 13.4832 9.13134 13.4221 9.34923 13.0842C9.56502 12.7484 9.44291 12.0474 8.92291 12.1253C8.78397 12.1442 8.62081 12.2853 8.50818 12.1726C8.3766 12.0432 8.23028 12.0442 8.08186 11.9505C7.98502 11.8905 7.94818 11.7579 7.8566 11.6842C7.76397 11.6063 7.66712 11.7705 7.53765 11.6716C7.30712 11.4968 7.43554 11.1895 7.31133 10.9695C7.16502 10.7053 6.7187 10.6874 6.4787 10.5095C6.31449 10.3874 6.15449 10.2295 5.95555 10.1684C5.7366 10.1021 5.50607 10.2179 5.29449 10.1368C4.9787 10.0116 4.7766 9.70737 4.50291 9.52C4.12081 9.2579 4.10186 9.14947 4.17344 8.71053C4.1987 8.55158 4.1787 8.36737 4.15344 8.20737C4.10186 7.89368 3.84291 7.68 3.74607 7.38526C3.65449 7.10105 3.8187 6.74211 3.64291 6.48421C3.57239 6.37789 3.4387 6.35895 3.36291 6.24421C3.02502 5.73579 3.13976 4.93684 3.46291 4.46105C3.69555 4.11789 4.23765 3.70632 4.23555 3.26421C4.23555 3.08632 4.21134 3.16211 4.30186 3.04526C4.41765 2.89158 4.45344 2.85263 4.50397 2.65789C4.56291 2.43789 4.70502 2.23895 4.80607 2.03474C4.86186 1.91895 5.01555 1.69263 4.98818 1.54947C4.96607 1.45263 4.93765 1.44211 4.82818 1.44211C4.71765 1.44211 4.62291 1.51053 4.54186 1.56211C1.80923 3.32211 -0.000244141 6.39263 -0.000244141 9.88842C-0.000244141 15.3495 4.41765 19.7789 9.87028 19.7789C9.93976 19.7789 10.0429 19.7789 10.0755 19.7495C10.0882 19.7337 10.084 19.4179 10.0966 19.3568C10.1292 19.2021 10.1619 19.0347 10.2777 18.9211C10.5503 18.6621 10.6187 18.2463 10.7198 17.9011C10.8198 17.5526 10.9271 17.0663 10.5671 16.8263Z" fill="#18223E"/>
</g>
</svg>
