<?xml version="1.0" encoding="UTF-8"?>
<svg width="15" height="14" viewBox="0 0 15 14" fill="none" xmlns="http://www.w3.org/2000/svg">
<path fill-rule="evenodd" clip-rule="evenodd" d="M13.6333 11.8824C14.1243 12.3714 14.1243 13.1404 13.6333 13.6294C13.1423 14.1184 12.3713 14.1184 11.8813 13.6294L9.14725 10.4494C6.90425 12.0924 3.71425 11.9174 1.68225 9.85535C-0.56075 7.58435 -0.56075 3.94935 1.68225 1.67735C3.92525 -0.558649 7.60525 -0.558649 9.84825 1.67735C11.8813 3.70435 12.0913 6.88535 10.4443 9.12035L13.4583 11.6724C13.4932 11.7774 13.5633 11.8464 13.6333 11.8824ZM8.83126 2.69135C7.11426 0.979351 4.34527 0.979351 2.62827 2.69135C0.911265 4.40335 0.911265 7.16435 2.62827 8.87635C4.34527 10.5884 7.11426 10.5884 8.83126 8.87635C10.5493 7.19935 10.5493 4.40335 8.83126 2.69135Z" fill="#4E5664"/>
</svg>
